<svg id="Layer_1" data-name="Layer 1" xmlns="http://www.w3.org/2000/svg" xmlns:xlink="http://www.w3.org/1999/xlink" viewBox="0 0 100 100"><defs><style>.cls-1{fill:url(#linear-gradient);}.cls-2{fill:url(#linear-gradient-2);}</style><linearGradient id="linear-gradient" x1="34.65" y1="39.04" x2="97.5" y2="39.04" gradientUnits="userSpaceOnUse"><stop offset="0.04" stop-color="#2333c9"/><stop offset="0.16" stop-color="#0c0c0c"/><stop offset="0.36" stop-color="#2466c6"/><stop offset="0.67" stop-color="#3b88e2"/><stop offset="0.92" stop-color="#2333c9"/></linearGradient><linearGradient id="linear-gradient-2" x1="2.5" y1="52.99" x2="71.82" y2="52.99" xlink:href="#linear-gradient"/></defs><path class="cls-1" d="M42.76,54.15c.25-.09.31-.33.15-.66h-.66c-5.14.09-7.28-2.72-5.69-7.63a20.93,20.93,0,0,1,6.6-9.28c7.51-6.51,16.49-8.21,26.06-7.86,5.1.19,10.2.57,15.31.35,3.65-.16,7.35-.21,10.74-1.87,1.41-.69,2.5-1.63,2.17-3.63-5.14,2.66-10.56,2.42-15.93,2-6.53-.54-13-1.27-19.57-.21C53.19,26.75,45.52,30.22,39.65,37c-2.9,3.37-5.2,7.1-5,11.81A6.13,6.13,0,0,0,42.76,54.15Z"/><path class="cls-2" d="M65.49,45.91a3.28,3.28,0,0,0-4.18,1,10.1,10.1,0,0,0-1.74,3.33c-.57,1.58-1.94.84-2.94.85-.79,0-.32-.74-.14-1.1,3.62-7.67,7-15.49,15.33-19.55a1.56,1.56,0,0,0-2.13-.78,25.12,25.12,0,0,0-10.32,6.36,48.66,48.66,0,0,0-8.81,13.09,3.94,3.94,0,0,1-3.27,2c-.64,0-1.32,0-2,0a.87.87,0,0,0-.94.88c0,.68.6.41,1,.43a11.26,11.26,0,0,0,2-.05c1.31-.14,1.42.29.94,1.23-2.05,4.08-3.65,8.52-6.71,11.92-11.6,12.9-26.41,8.56-29.06,7-9.27-5.45-11.14-19.15-1.68-25.2l.41-.22a8.81,8.81,0,0,1,.89-.38c.29-.12.59-.23.89-.33a16,16,0,0,1,1.8-.51c.6-.13,1.21-.23,1.82-.3s1.21-.1,1.82-.11,1.23,0,1.84.08,1.24.14,1.85.25,1.25.26,1.86.42a1.91,1.91,0,0,1,.71.29c.53.3,1.07.58,1.61.86s1.07.59,1.57.93l.53.4a10.94,10.94,0,0,1,3.35,11.71C30.64,64,27.42,66.05,23,66.34a15.71,15.71,0,0,1-5.94-1.48c-1.19-.71-1.14-1.51.39-2a1.94,1.94,0,0,0,1.35-1.75,2.39,2.39,0,0,0-1-2.5,2.86,2.86,0,0,0-2.9-.23A2.4,2.4,0,0,0,13.64,61a5.5,5.5,0,0,0,2.64,4.36,2.66,2.66,0,0,1,.38.28,8.5,8.5,0,0,0,4.78,1.64c7.2.81,13.28-4.63,12.77-11.39a8.6,8.6,0,0,0-.2-1.32,9.76,9.76,0,0,0-.4-1.3A10.93,10.93,0,0,0,33,52a11.41,11.41,0,0,0-.76-1.19,10.74,10.74,0,0,0-.91-1.11,12.64,12.64,0,0,0-1.05-1c-.38-.33-.78-.64-1.19-.93a14.8,14.8,0,0,0-1.31-.8,15.3,15.3,0,0,0-1.42-.67c-.46-.19-.93-.36-1.54-.58a3.31,3.31,0,0,1-.42-.12L24,45.44,23,45.17c-.61-.16-1.23-.3-1.86-.4a16.83,16.83,0,0,0-1.86-.22c-.62,0-1.24,0-1.85,0a16.33,16.33,0,0,0-1.85.19,18.78,18.78,0,0,0-1.84.39,16.57,16.57,0,0,0-1.84.62l-.82.34a23,23,0,0,0-4.86,3.45A14.89,14.89,0,0,0,5,67.71C8,72.2,12.34,74.52,17.32,75.93c1.08.32,11.92,2.85,28.28-7.52C50.11,65.56,51.71,59.81,54,55c1.4-3,1.41-2.94,4.83-2.5a13,13,0,0,1-3.69,7.4,2,2,0,0,0,2-.45,8,8,0,0,0,3.17-4.26c.6-1.73,1.1-3.33,3.48-3.11a3.44,3.44,0,0,0,2.29-1A3,3,0,0,0,65.49,45.91ZM62.6,51.1c-.48,0-1,0-.9-.74.11-1.58,1.73-3.8,2.88-3.73s1.76.93,1.74,2.08C66.29,50,64.49,51.16,62.6,51.1Z"/></svg>